# xmcd CD database file
# Generated: Wed May 3 11:59:43 2000 by KSCD
# 
# Track frame offsets:
#       150
#       9232
#       27300
#       43783
#       57337
#       68993
#       74231
#       110198
#       119519
#       135973
#
# Disc length: 1911 seconds
#
# Revision: 2
# Processed by: cddbd v1.4b41PL1 Copyright (c) Steve Scherf et al.
# Submitted via: Kscd 1.2.7
#
DISCID=9507750a
DTITLE=tHE hOLY cHILDHOOD - up with what I'm down with
DYEAR=1900
DGENRE=
TTITLE0=Shame
TTITLE1=I Better Be Careful Or I'll Be Understood By Everybody
TTITLE2=Fat Tuesday Everyday!
TTITLE3=I'm Going To The Airport
TTITLE4=Narragansett Night Life
TTITLE5=The Shaker Aesthetic
TTITLE6=Emma Flood, My Best Friend
TTITLE7=Sometimes I Feel Like A Motherless Child
TTITLE8=Ambivalent Blues
TTITLE9=The Holy Childhood Meets Its Maker On A Mystery Hill
EXTD=
EXTT0=
EXTT1=
EXTT2=
EXTT3=
EXTT4=
EXTT5=
EXTT6=
EXTT7=
EXTT8=
EXTT9=
PLAYORDER=
